PathFileType	4	(X/Y/Z)	Patient4_TMGait_0pt3_03_right_01.trc.trc
DataRate	CameraRate	NumFrames	NumMarkers	Units	OrigDataRate	OrigDataStartFrame	OrigNumFrames
56.000000000000	56.000000000000	4	33	mm	56.000000000000	106	       141
Frame#	Time	Sacral			L.Shoulder			Chest			R.Shoulder			Neck			R.ASIS			L.ASIS			R.Thigh.Superior			R.Thigh.Lateral			R.Thigh.Inferior			R.Patella			L.Thigh.Superior			L.Thigh.Lateral			L.Thigh.Inferior			L.Patella			L.Shank.Superior			L.Shank.Lateral			L.Shank.Inferior			R.Shank.Superior			R.Shank.Lateral			R.Shank.Inferior			R.Heel			R.Midfoot.Superior			R.Midfoot.Lateral			R.Toe			L.Heel			L.Midfoot.Lateral			L.Midfoot.Superior			L.Toe			L.Elbow			L.Wrist			R.Elbow			R.Wrist			
		X1	Y1	Z1	X2	Y2	Z2	X3	Y3	Z3	X4	Y4	Z4	X5	Y5	Z5	X6	Y6	Z6	X7	Y7	Z7	X8	Y8	Z8	X9	Y9	Z9	X10	Y10	Z10	X11	Y11	Z11	X12	Y12	Z12	X13	Y13	Z13	X14	Y14	Z14	X15	Y15	Z15	X16	Y16	Z16	X17	Y17	Z17	X18	Y18	Z18	X19	Y19	Z19	X20	Y20	Z20	X21	Y21	Z21	X22	Y22	Z22	X23	Y23	Z23	X24	Y24	Z24	X25	Y25	Z25	X26	Y26	Z26	X27	Y27	Z27	X28	Y28	Z28	X29	Y29	Z29	X30	Y30	Z30	X31	Y31	Z31	X32	Y32	Z32	X33	Y33	Z33	

106	3.715000000000	786.357117338057	976.711457588181	398.482502989037	980.189152234638	1407.336120766667	228.977830403334	1080.494837544915	1327.418089340109	386.001116092621	1003.521376904981	1393.450625807584	565.352321131053	970.712155043144	1464.482790029669	391.108989270167	1020.194719148366	904.804395450599	506.485296947797	998.894205589815	935.007563790485	234.995541919668	1090.422674373365	724.079071125482	466.947952632447	1043.844773053824	608.573653687097	542.639792725558	1120.883202199732	560.348908621659	452.964840062479	1127.685881034281	444.844040537459	478.337792689732	1069.158763351481	733.329192224645	282.876153051583	1001.251297458760	602.299694700678	230.935760753225	1088.439257720296	537.964004345488	308.734049390661	1094.422057413414	459.729291919558	320.186112266024	1046.132433608128	385.713365976574	313.266597127866	936.304630444362	294.204868527425	255.565367454441	947.204570857543	177.788366582482	330.844744187289	1039.375820517988	384.060277854436	497.919434508784	913.395109094075	371.479390394647	562.690969462538	880.767181515270	262.060601077827	525.994472554747	670.366323493457	231.639634365075	502.786746203453	829.203526417925	153.975875744235	557.677097251102	719.516495094448	175.036476478720	585.435499143006	874.126628010814	36.632575842527	598.750395067501	785.996466980712	42.482058569417	362.160754163738	863.251294892379	37.300539325197	285.608854345782	947.756078352530	95.034934695834	317.637479027516	1075.098185884863	38.820539221003	291.699942310727	1006.812317117970	1063.114272999137	86.366780273195	1124.394617446286	829.806473539075	86.011657789248	932.121217748389	1048.096683716263	678.483930987000	947.866727090733	788.099362299851	681.138455299594	
107	3.732857142857	785.411724335535	975.514674999633	396.879404085592	981.643250036085	1406.505687843378	230.030751628324	1079.636450139187	1326.591575875680	388.457711305550	999.826228856306	1392.332491021140	566.748531363387	969.923559797375	1463.541143190213	392.188011884403	1018.267228290588	904.086662897548	507.702490089262	1000.015603192015	934.092704354116	235.898430789396	1091.940122416232	726.516898504757	467.378799757674	1048.276121754098	610.247743398135	543.134630350161	1126.353911202615	563.743512770758	453.378379686971	1136.031468349901	448.405456353170	478.920957539655	1069.172495944880	731.697687160355	284.094639881913	1001.019286859570	601.035889837772	231.606884526096	1087.151177151215	536.304728413879	310.378535495879	1092.682910066913	458.114295538288	322.036154446995	1043.685274535625	384.256823019398	314.559239166833	933.429747571645	293.697758752736	256.088602870907	942.835294932035	177.087548861369	331.235223665317	1048.872707034889	385.788065795440	498.595533917166	922.748450965902	370.681173654928	562.503844321150	893.221574299724	260.267996755753	526.237577877816	683.483469063405	222.692656317433	501.654969162222	844.826041799626	152.454902792648	558.331061272848	734.384992397934	169.613938791595	585.438672949067	894.023633465433	37.999930629650	601.551935988308	780.607831157084	42.545282210846	361.977277860563	857.925909850190	37.288943962732	285.476537705256	942.432486400392	94.926053609010	317.678647231890	1069.763222474870	38.761827579839	291.635622105096	1013.981010112305	1063.380002607190	86.438645147870	1138.939286176905	833.732107797440	88.527940983294	916.897451731994	1050.112171240654	679.055849169910	923.180529793050	789.926994856347	686.546669331646	
108	3.750714285714	784.509928476508	975.287930655550	395.613708097822	983.300370612905	1406.413916881999	231.332136215750	1078.877454660595	1326.599323432601	391.217977237845	996.189234487900	1392.295863286634	568.287936467361	969.265041943790	1463.422553623247	393.395074133418	1016.199151239817	904.152810129765	509.446072576044	1001.200666029551	933.959528963242	237.330051727832	1092.792714049087	729.535458075234	468.463643290703	1051.663379372066	612.570788459721	544.299645590870	1130.721647979942	567.641896275213	454.605020052021	1143.231951201776	452.789589319780	480.283889106136	1068.580823714850	730.446649808535	285.590577248312	999.733421251195	600.441898055461	232.400551515439	1084.605169951039	535.012366312626	311.963432747301	1089.528873164666	457.009226171532	323.759306843011	1040.060437780551	383.379700667268	315.710371366699	929.663646229305	293.445037351819	256.528940754519	938.048920353372	176.662366811375	331.539668791365	1057.798583391587	388.023391279248	500.046642613591	932.007129723577	369.247321407023	563.340590475698	906.472699773875	257.773371507650	527.342815386996	698.041156473715	211.237074408167	501.838725914125	862.226957979115	149.875554029966	559.600674770856	751.234480767976	162.042772016349	586.459614837602	916.780527906007	39.163849686380	604.555140590306	775.186124988878	42.569893639710	361.784758428211	852.572208753604	37.255877830253	285.332682032184	937.065873375621	94.848484592389	317.663953659135	1064.405466582005	38.727693088248	291.572248238601	1020.787969000945	1064.476724668424	86.848511750180	1153.828504642240	839.159166831109	91.600009733773	902.410253627365	1053.300049153418	679.230822513691	900.641635073581	793.266371614439	690.327885771921	
109	3.768571428571	783.668510462347	976.078439975927	394.734824971963	985.158758711537	1407.122859052600	232.902576258768	1078.242197454651	1327.472777434631	394.267387613783	992.694269459449	1393.349701704502	569.983655674451	968.758995320515	1464.162065356593	394.762757185253	1014.040542720978	905.067380103598	511.691678895481	1002.402149770699	934.635410187124	239.268883753748	1092.995810395639	733.093969195020	470.184710187417	1053.952541529623	615.487217648794	546.123159616859	1133.913538085556	571.946863896997	456.627577970719	1149.158316961181	457.907623852585	482.383078172658	1067.330482341045	729.618938305549	287.356879921365	997.353849619984	600.557334658741	233.321382135889	1080.765625463348	534.136229042317	313.475918433500	1084.929131936399	456.455550402305	325.327677861874	1035.231312393844	383.125039480058	316.701662959752	924.977208118793	293.480413753198	256.882738092446	932.838861155154	176.540938234513	331.759098870943	1066.036040398578	390.751395198323	502.243670552401	941.176268400468	367.235478017700	565.244334841460	920.445319497373	254.747419066620	529.331742627624	714.143784928772	197.726890828257	503.458931950344	881.271097507945	146.437933464368	561.490316636976	770.079900421104	152.659945563203	588.542778574509	942.032736393449	40.210179379534	607.615973703709	769.737064933223	42.568620400049	361.590729907063	847.190999041733	37.212059922023	285.184418983720	931.664301719758	94.809685176087	317.593561357438	1059.025137751304	38.716585434523	291.509839841917	1027.284076906039	1066.448189406169	87.602730382277	1168.997295344850	846.196200677422	95.215287798015	888.819188221725	1057.587552305737	679.078241752301	880.460740271776	797.853901180680	692.559158043221	
